<svg width="26" height="26" viewBox="0 0 26 26" fill="none" xmlns="http://www.w3.org/2000/svg">
<path d="M2.62494 25.1682C1.95421 25.1682 1.38002 24.9294 0.902377 24.4517C0.424734 23.9741 0.185913 23.3999 0.185913 22.7292V5.65599C0.185913 4.98526 0.424734 4.41107 0.902377 3.93343C1.38002 3.45578 1.95421 3.21696 2.62494 3.21696H13.5091L11.0701 5.65599H2.62494V22.7292H19.6981V14.2535L22.1371 11.8145V22.7292C22.1371 23.3999 21.8983 23.9741 21.4207 24.4517C20.943 24.9294 20.3688 25.1682 19.6981 25.1682H2.62494ZM16.253 3.91818L17.9908 5.6255L9.94201 13.6743V15.4121H11.6493L19.7286 7.33282L21.4664 9.04013L13.3871 17.1194C13.1636 17.343 12.9044 17.5208 12.6097 17.6529C12.315 17.7851 12.005 17.8511 11.6798 17.8511H8.7225C8.37697 17.8511 8.08734 17.7342 7.8536 17.5005C7.61986 17.2668 7.50299 16.9771 7.50299 16.6316V13.6743C7.50299 13.3491 7.56396 13.0391 7.68591 12.7444C7.80786 12.4497 7.98063 12.1905 8.20421 11.967L16.253 3.91818ZM21.4664 9.04013L16.253 3.91818L19.3018 0.869403C19.7896 0.381598 20.3739 0.137695 21.0548 0.137695C21.7357 0.137695 22.3099 0.381598 22.7774 0.869403L24.4847 2.60721C24.9522 3.07469 25.1859 3.64379 25.1859 4.31452C25.1859 4.98526 24.9522 5.55436 24.4847 6.02184L21.4664 9.04013Z" fill="white"/>
</svg>
