<svg width="30" height="26" viewBox="0 0 30 26" fill="none" xmlns="http://www.w3.org/2000/svg">
<path d="M22.9544 2.73855L22.9545 23.1929C22.9538 23.7955 22.7142 24.3732 22.2881 24.7993C21.862 25.2253 21.2843 25.465 20.6817 25.4656L16.1363 25.4656C15.5338 25.465 14.956 25.2253 14.53 24.7993C14.1039 24.3732 13.8642 23.7955 13.8636 23.1929L13.8636 2.73855C13.8642 2.13597 14.1039 1.55825 14.53 1.13217C14.956 0.706083 15.5338 0.466443 16.1363 0.465841L20.6817 0.46584C21.2843 0.466443 21.862 0.706082 22.2881 1.13217C22.7142 1.55825 22.9538 2.13597 22.9544 2.73855ZM16.1363 23.1929L20.6817 23.1929L20.6817 2.73855L16.1363 2.73855L16.1363 23.1929ZM16.1363 2.73855L16.1363 23.1929C16.1357 23.7955 15.8961 24.3731 15.47 24.7992C15.0439 25.2253 14.4662 25.4649 13.8636 25.4655L9.31823 25.4655C8.71566 25.4649 8.13794 25.2253 7.71185 24.7992C7.28577 24.3731 7.04613 23.7954 7.04553 23.1928L7.04553 2.73852C7.04613 2.13595 7.28577 1.55823 7.71185 1.13214C8.13793 0.706058 8.71566 0.466423 9.31823 0.46582L13.8636 0.46582C14.4662 0.466422 15.0439 0.706058 15.47 1.13214C15.8961 1.55823 16.1357 2.13597 16.1363 2.73855ZM9.31823 23.1928L13.8636 23.1929L13.8636 2.73855L9.31823 2.73852L9.31823 23.1928ZM9.31823 2.73852L9.31823 23.1928C9.31763 23.7954 9.07799 24.3731 8.65191 24.7992C8.22582 25.2253 7.6481 25.4649 7.04553 25.4656L2.50012 25.4656C1.89755 25.4649 1.31983 25.2253 0.893741 24.7992C0.467657 24.3731 0.228019 23.7954 0.227417 23.1928L0.227416 2.73852C0.228018 2.13595 0.467656 1.55823 0.89374 1.13214C1.31982 0.706058 1.89755 0.466423 2.50012 0.46582L7.04553 0.46582C7.6481 0.466423 8.22582 0.706058 8.6519 1.13214C9.07799 1.55823 9.31763 2.13595 9.31823 2.73852ZM2.50012 23.1928L7.04553 23.1928L7.04553 2.73852L2.50012 2.73852L2.50012 23.1928Z" fill="white"/>
<path d="M29.7726 2.7388L29.7726 23.1931C29.772 23.7957 29.5323 24.3734 29.1062 24.7995C28.6802 25.2256 28.1024 25.4652 27.4999 25.4658L22.9545 25.4658C22.3519 25.4652 21.7742 25.2256 21.3481 24.7995C20.922 24.3734 20.6824 23.7955 20.6817 23.1929L20.6817 2.73855C20.6823 2.13597 20.922 1.5585 21.3481 1.13242C21.7742 0.706334 22.3519 0.466697 22.9544 0.466094L27.4999 0.466094C28.1024 0.466696 28.6801 0.706334 29.1062 1.13242C29.5323 1.5585 29.772 2.13622 29.7726 2.7388ZM22.9545 23.1929L27.4999 23.1931L27.4999 2.7388L22.9544 2.73855L22.9545 23.1929Z" fill="white"/>
</svg>
