<svg width="18" height="17" viewBox="0 0 18 17" fill="none" xmlns="http://www.w3.org/2000/svg">
<path d="M17.466 5.5V13.5C17.466 15.1569 16.1229 16.5 14.466 16.5H4.466C2.80915 16.5 1.466 15.1569 1.466 13.5V3.5C1.466 1.84315 2.80915 0.5 4.466 0.5H14.466" stroke="black" stroke-linecap="round"/>
<path d="M8.466 11L5.96925 8.08712C5.69779 7.77042 5.21416 7.75184 4.91921 8.0468C4.6612 8.30481 4.63845 8.71556 4.86639 9.00048L7.69758 12.5395C8.09389 13.0349 8.84538 13.0408 9.24941 12.5517L17.5552 2.49728C17.7881 2.21533 17.7685 1.80251 17.5099 1.54391C17.2169 1.2509 16.7362 1.27036 16.4678 1.58609L8.466 11Z" fill="black"/>
</svg>
