<svg width="24" height="26" viewBox="0 0 24 26" fill="none" xmlns="http://www.w3.org/2000/svg">
<path d="M12 20.4658C10.8333 20.4658 9.71875 20.6481 8.65625 21.0127C7.59375 21.3773 6.625 21.9242 5.75 22.6533V22.9658H18.25V22.6533C17.375 21.9242 16.4062 21.3773 15.3438 21.0127C14.2812 20.6481 13.1667 20.4658 12 20.4658ZM3.25 21.5283C4.375 20.4242 5.68229 19.5544 7.17188 18.9189C8.66146 18.2835 10.2708 17.9658 12 17.9658C13.7292 17.9658 15.3385 18.2835 16.8281 18.9189C18.3177 19.5544 19.625 20.4242 20.75 21.5283V5.46582H3.25V21.5283ZM12 15.4658C10.7917 15.4658 9.76042 15.0387 8.90625 14.1846C8.05208 13.3304 7.625 12.2992 7.625 11.0908C7.625 9.88249 8.05208 8.85124 8.90625 7.99707C9.76042 7.1429 10.7917 6.71582 12 6.71582C13.2083 6.71582 14.2396 7.1429 15.0938 7.99707C15.9479 8.85124 16.375 9.88249 16.375 11.0908C16.375 12.2992 15.9479 13.3304 15.0938 14.1846C14.2396 15.0387 13.2083 15.4658 12 15.4658ZM12 12.9658C12.5208 12.9658 12.9635 12.7835 13.3281 12.4189C13.6927 12.0544 13.875 11.6117 13.875 11.0908C13.875 10.57 13.6927 10.1273 13.3281 9.7627C12.9635 9.39811 12.5208 9.21582 12 9.21582C11.4792 9.21582 11.0365 9.39811 10.6719 9.7627C10.3073 10.1273 10.125 10.57 10.125 11.0908C10.125 11.6117 10.3073 12.0544 10.6719 12.4189C11.0365 12.7835 11.4792 12.9658 12 12.9658ZM3.25 25.4658C2.5625 25.4658 1.97396 25.221 1.48438 24.7314C0.994792 24.2419 0.75 23.6533 0.75 22.9658V5.46582C0.75 4.77832 0.994792 4.18978 1.48438 3.7002C1.97396 3.21061 2.5625 2.96582 3.25 2.96582H4.5V0.46582H7V2.96582H17V0.46582H19.5V2.96582H20.75C21.4375 2.96582 22.026 3.21061 22.5156 3.7002C23.0052 4.18978 23.25 4.77832 23.25 5.46582V22.9658C23.25 23.6533 23.0052 24.2419 22.5156 24.7314C22.026 25.221 21.4375 25.4658 20.75 25.4658H3.25Z" fill="white"/>
</svg>
