<svg width="50" height="50" viewBox="0 0 50 50" fill="none" xmlns="http://www.w3.org/2000/svg">
<path d="M0.5 10C0.5 4.75329 4.75329 0.5 10 0.5H49.5V49.5H10C4.75329 49.5 0.5 45.2467 0.5 40V10Z" fill="white"/>
<mask id="mask0_71811_4094" style="mask-type:alpha" maskUnits="userSpaceOnUse" x="9" y="9" width="32" height="32">
<rect x="9" y="9" width="32" height="32" fill="#D9D9D9"/>
</mask>
<g mask="url(#mask0_71811_4094)">
<path d="M18.3329 37C17.5996 37 16.9718 36.7389 16.4496 36.2167C15.9273 35.6944 15.6662 35.0667 15.6662 34.3333V17H14.3329V14.3333H20.9996V13H28.9996V14.3333H35.6662V17H34.3329V34.3333C34.3329 35.0667 34.0718 35.6944 33.5496 36.2167C33.0273 36.7389 32.3996 37 31.6662 37H18.3329ZM31.6662 17H18.3329V34.3333H31.6662V17ZM20.9996 31.6667H23.6662V19.6667H20.9996V31.6667ZM26.3329 31.6667H28.9996V19.6667H26.3329V31.6667Z" fill="#2A3647"/>
</g>
<path d="M0.5 10C0.5 4.75329 4.75329 0.5 10 0.5H49.5V49.5H10C4.75329 49.5 0.5 45.2467 0.5 40V10Z" stroke="#2A3647"/>
</svg>
