<svg width="50" height="50" viewBox="0 0 50 50" fill="none" xmlns="http://www.w3.org/2000/svg">
<path d="M0 0H40C45.5228 0 50 4.47715 50 10V40C50 45.5228 45.5228 50 40 50H0V0Z" fill="#2A3647"/>
<mask id="mask0_71811_4098" style="mask-type:alpha" maskUnits="userSpaceOnUse" x="13" y="13" width="24" height="24">
<rect x="13" y="13" width="24" height="24" fill="#D9D9D9"/>
</mask>
<g mask="url(#mask0_71811_4098)">
<path d="M18 32H19.4L28.025 23.375L26.625 21.975L18 30.6V32ZM32.3 21.925L28.05 17.725L29.45 16.325C29.8333 15.9417 30.3042 15.75 30.8625 15.75C31.4208 15.75 31.8917 15.9417 32.275 16.325L33.675 17.725C34.0583 18.1083 34.2583 18.5708 34.275 19.1125C34.2917 19.6542 34.1083 20.1167 33.725 20.5L32.3 21.925ZM30.85 23.4L20.25 34H16V29.75L26.6 19.15L30.85 23.4Z" fill="white"/>
</g>
</svg>
