<svg width="64" height="64" viewBox="0 0 64 64" fill="none" xmlns="http://www.w3.org/2000/svg">
<g filter="url(#filter0_d_71395_17959)">
<rect x="4" width="56" height="56" rx="28" fill="#29ABE2" shape-rendering="crispEdges"/>
<mask id="mask0_71395_17959" style="mask-type:alpha" maskUnits="userSpaceOnUse" x="16" y="12" width="32" height="32">
<rect x="16" y="12" width="32" height="32" fill="#D9D9D9"/>
</mask>
<g mask="url(#mask0_71395_17959)">
<path d="M31.9997 38.6666C31.2663 38.6666 30.6386 38.4055 30.1163 37.8833C29.5941 37.3611 29.333 36.7333 29.333 36C29.333 35.2666 29.5941 34.6389 30.1163 34.1166C30.6386 33.5944 31.2663 33.3333 31.9997 33.3333C32.733 33.3333 33.3608 33.5944 33.883 34.1166C34.4052 34.6389 34.6663 35.2666 34.6663 36C34.6663 36.7333 34.4052 37.3611 33.883 37.8833C33.3608 38.4055 32.733 38.6666 31.9997 38.6666ZM31.9997 30.6666C31.2663 30.6666 30.6386 30.4055 30.1163 29.8833C29.5941 29.3611 29.333 28.7333 29.333 28C29.333 27.2666 29.5941 26.6389 30.1163 26.1166C30.6386 25.5944 31.2663 25.3333 31.9997 25.3333C32.733 25.3333 33.3608 25.5944 33.883 26.1166C34.4052 26.6389 34.6663 27.2666 34.6663 28C34.6663 28.7333 34.4052 29.3611 33.883 29.8833C33.3608 30.4055 32.733 30.6666 31.9997 30.6666ZM31.9997 22.6666C31.2663 22.6666 30.6386 22.4055 30.1163 21.8833C29.5941 21.3611 29.333 20.7333 29.333 20C29.333 19.2666 29.5941 18.6389 30.1163 18.1166C30.6386 17.5944 31.2663 17.3333 31.9997 17.3333C32.733 17.3333 33.3608 17.5944 33.883 18.1166C34.4052 18.6389 34.6663 19.2666 34.6663 20C34.6663 20.7333 34.4052 21.3611 33.883 21.8833C33.3608 22.4055 32.733 22.6666 31.9997 22.6666Z" fill="white"/>
</g>
</g>
<defs>
<filter id="filter0_d_71395_17959" x="0" y="0" width="64" height="64" filterUnits="userSpaceOnUse" color-interpolation-filters="sRGB">
<feFlood flood-opacity="0" result="BackgroundImageFix"/>
<feColorMatrix in="SourceAlpha" type="matrix" values="0 0 0 0 0 0 0 0 0 0 0 0 0 0 0 0 0 0 127 0" result="hardAlpha"/>
<feOffset dy="4"/>
<feGaussianBlur stdDeviation="2"/>
<feComposite in2="hardAlpha" operator="out"/>
<feColorMatrix type="matrix" values="0 0 0 0 0 0 0 0 0 0 0 0 0 0 0 0 0 0 0.25 0"/>
<feBlend mode="normal" in2="BackgroundImageFix" result="effect1_dropShadow_71395_17959"/>
<feBlend mode="normal" in="SourceGraphic" in2="effect1_dropShadow_71395_17959" result="shape"/>
</filter>
</defs>
</svg>
