<svg width="101" height="123" viewBox="0 0 101 123" fill="none" xmlns="http://www.w3.org/2000/svg">
<g clip-path="url(#clip0_301_1264)">
<path d="M72.2664 0.53418H50.1085V26.0265H72.2664V0.53418Z" fill="white"/>
<path d="M50.1085 46.7593H72.2664V82.7121C72.3676 91.3634 69.9055 99.8495 65.1929 107.092C60.5398 114.128 51.5573 122.5 34.9389 122.5C16.8377 122.5 6.28716 113.94 0.594299 109.249L14.5708 92.0085C20.1273 96.5454 25.4793 100.278 35.0242 100.278C42.251 100.278 45.1315 97.3329 46.8189 94.7649C49.1129 91.1979 50.2995 87.0265 50.2278 82.7806L50.1085 46.7593Z" fill="white"/>
<path d="M38.808 30.666H16.6502V52.9225H38.808V30.666Z" fill="#29ABE2"/>
<path d="M83.8737 112.056C83.8737 116.799 81.4704 119.35 78.1127 119.35C74.7549 119.35 72.5562 116.319 72.5562 112.296C72.5562 108.273 74.8231 105.088 78.3001 105.088C81.7772 105.088 83.8737 108.221 83.8737 112.056ZM75.1299 112.245C75.1299 115.104 76.2718 117.21 78.232 117.21C80.1921 117.21 81.3 114.984 81.3 112.074C81.3 109.523 80.2773 107.126 78.232 107.126C76.1866 107.126 75.1299 109.437 75.1299 112.245Z" fill="white"/>
<path d="M88.2711 105.294V119.127H85.8167V105.294H88.2711Z" fill="white"/>
<path d="M90.9301 119.127V105.294H93.6572L96.5888 110.995C97.3435 112.486 98.015 114.018 98.6001 115.583V115.583C98.4467 113.871 98.3785 111.902 98.3785 109.711V105.294H100.628V119.127H98.0887L95.123 113.306C94.3378 111.777 93.6379 110.205 93.0265 108.598V108.598C93.0265 110.31 93.1458 112.245 93.1458 114.625V119.11L90.9301 119.127Z" fill="white"/>
</g>
<defs>
<clipPath id="clip0_301_1264">
<rect width="100.034" height="121.966" fill="white" transform="translate(0.594299 0.53418)"/>
</clipPath>
</defs>
</svg>
