<svg width="32" height="33" viewBox="0 0 32 33" fill="none" xmlns="http://www.w3.org/2000/svg">
<rect y="0.5" width="32" height="32" rx="10" fill="white"/>
<g clip-path="url(#clip0_182_1140)">
<path d="M16.0003 15.2549C16.1997 15.2545 16.394 15.3165 16.5545 15.4315L24.123 20.8655C24.2215 20.9362 24.3046 21.0251 24.3678 21.1272C24.4309 21.2292 24.4727 21.3423 24.4909 21.46C24.5276 21.6978 24.4656 21.94 24.3186 22.1334C24.1716 22.3267 23.9516 22.4554 23.7071 22.4911C23.4625 22.5267 23.2134 22.4665 23.0145 22.3236L16.0003 17.2926L8.98602 22.3236C8.88754 22.3943 8.7757 22.4455 8.65687 22.4743C8.53803 22.503 8.41455 22.5087 8.29345 22.4911C8.17235 22.4734 8.05602 22.4327 7.95109 22.3714C7.84616 22.31 7.75469 22.2291 7.68191 22.1334C7.60912 22.0376 7.55644 21.9289 7.52688 21.8134C7.49732 21.6978 7.49146 21.5778 7.50962 21.46C7.52779 21.3423 7.56963 21.2292 7.63275 21.1272C7.69588 21.0251 7.77905 20.9362 7.87752 20.8654L15.446 15.4315C15.6066 15.3165 15.8008 15.2545 16.0003 15.2549Z" fill="#FF3D00"/>
<path d="M16 10.5C16.1994 10.4997 16.3937 10.5616 16.5543 10.6766L24.1228 16.1106C24.3216 16.2535 24.454 16.4674 24.4907 16.7051C24.5273 16.9429 24.4654 17.1851 24.3184 17.3785C24.1714 17.5718 23.9514 17.7005 23.7068 17.7362C23.4623 17.7718 23.2131 17.7116 23.0143 17.5687L16 12.5377L8.98577 17.5687C8.78689 17.7116 8.53777 17.7718 8.2932 17.7362C8.04863 17.7005 7.82866 17.5718 7.68166 17.3785C7.53467 17.1851 7.47269 16.9429 7.50938 16.7051C7.54606 16.4674 7.6784 16.2535 7.87728 16.1106L15.4458 10.6766C15.6063 10.5616 15.8006 10.4997 16 10.5Z" fill="#FF3D00"/>
</g>
<defs>
<clipPath id="clip0_182_1140">
<rect width="17" height="12" fill="white" transform="translate(24.5 22.5) rotate(-180)"/>
</clipPath>
</defs>
</svg>
