<svg width="32" height="27" viewBox="0 0 32 27" fill="none" xmlns="http://www.w3.org/2000/svg">
<rect y="0.333374" width="32" height="26.3333" rx="10" fill="white"/>
<g clip-path="url(#clip0_182_1117)">
<path d="M23.5685 16.6667L8.43151 16.6667C8.18446 16.6667 7.94752 16.5679 7.77283 16.3919C7.59814 16.2159 7.5 15.9773 7.5 15.7284C7.5 15.4796 7.59814 15.2409 7.77283 15.065C7.94752 14.889 8.18446 14.7902 8.43151 14.7902L23.5685 14.7902C23.8155 14.7902 24.0525 14.889 24.2272 15.065C24.4019 15.2409 24.5 15.4796 24.5 15.7284C24.5 15.9773 24.4019 16.2159 24.2272 16.3919C24.0525 16.5679 23.8155 16.6667 23.5685 16.6667Z" fill="#FFA800"/>
<path d="M23.5685 12.2099L8.43151 12.2099C8.18446 12.2099 7.94752 12.1111 7.77283 11.9351C7.59814 11.7591 7.5 11.5205 7.5 11.2716C7.5 11.0228 7.59814 10.7841 7.77283 10.6082C7.94752 10.4322 8.18446 10.3334 8.43151 10.3334L23.5685 10.3334C23.8155 10.3334 24.0525 10.4322 24.2272 10.6082C24.4019 10.7841 24.5 11.0228 24.5 11.2716C24.5 11.5205 24.4019 11.7591 24.2272 11.9351C24.0525 12.1111 23.8155 12.2099 23.5685 12.2099Z" fill="#FFA800"/>
</g>
<defs>
<clipPath id="clip0_182_1117">
<rect width="17" height="6.33333" fill="white" transform="translate(7.5 10.3334)"/>
</clipPath>
</defs>
</svg>
