<svg width="32" height="33" viewBox="0 0 32 33" fill="none" xmlns="http://www.w3.org/2000/svg">
<rect y="0.5" width="32" height="32" rx="10" fill="white"/>
<g clip-path="url(#clip0_182_1003)">
<path d="M15.9997 17.7451C15.8003 17.7455 15.606 17.6835 15.4455 17.5685L7.877 12.1345C7.77852 12.0638 7.69535 11.9749 7.63223 11.8728C7.5691 11.7708 7.52726 11.6577 7.5091 11.54C7.47241 11.3022 7.53439 11.06 7.68138 10.8666C7.82838 10.6733 8.04835 10.5446 8.29292 10.5089C8.53749 10.4733 8.78661 10.5335 8.98549 10.6764L15.9997 15.7074L23.014 10.6764C23.1125 10.6057 23.2243 10.5545 23.3431 10.5257C23.462 10.497 23.5855 10.4913 23.7066 10.5089C23.8277 10.5266 23.944 10.5673 24.0489 10.6286C24.1538 10.69 24.2453 10.7709 24.3181 10.8666C24.3909 10.9624 24.4436 11.0711 24.4731 11.1866C24.5027 11.3022 24.5085 11.4222 24.4904 11.54C24.4722 11.6577 24.4304 11.7708 24.3672 11.8728C24.3041 11.9749 24.221 12.0638 24.1225 12.1346L16.554 17.5685C16.3934 17.6835 16.1992 17.7455 15.9997 17.7451Z" fill="#7AE229"/>
<path d="M16 22.5C15.8006 22.5003 15.6063 22.4384 15.4457 22.3234L7.87724 16.8894C7.67837 16.7465 7.54603 16.5326 7.50934 16.2949C7.47266 16.0571 7.53463 15.8149 7.68163 15.6215C7.82862 15.4282 8.0486 15.2995 8.29317 15.2638C8.53773 15.2282 8.78686 15.2884 8.98574 15.4313L16 20.4623L23.0142 15.4313C23.2131 15.2884 23.4622 15.2282 23.7068 15.2638C23.9514 15.2995 24.1713 15.4282 24.3183 15.6215C24.4653 15.8149 24.5273 16.0571 24.4906 16.2949C24.4539 16.5326 24.3216 16.7465 24.1227 16.8894L16.5542 22.3234C16.3937 22.4384 16.1994 22.5003 16 22.5Z" fill="#7AE229"/>
</g>
<defs>
<clipPath id="clip0_182_1003">
<rect width="17" height="12" fill="white" transform="translate(7.5 10.5)"/>
</clipPath>
</defs>
</svg>
