<svg width="60" height="61" viewBox="0 0 60 61" fill="none" xmlns="http://www.w3.org/2000/svg">
<circle cx="30" cy="30.5" r="30" fill="#FF3D00"/>
<g clip-path="url(#clip0_71091_2023)">
<path d="M44.8709 41.6626C44.4699 41.6633 44.0792 41.5337 43.7563 41.2929L29.6511 30.763L15.5458 41.2929C15.3478 41.441 15.1229 41.5482 14.8839 41.6084C14.645 41.6685 14.3966 41.6805 14.1531 41.6435C13.9096 41.6066 13.6757 41.5214 13.4647 41.393C13.2536 41.2645 13.0697 41.0953 12.9233 40.8949C12.777 40.6945 12.6711 40.4669 12.6116 40.2251C12.5522 39.9832 12.5404 39.7319 12.5769 39.4855C12.6507 38.9878 12.9168 38.5402 13.3167 38.2411L28.5365 26.8677C28.8591 26.626 29.2498 26.4956 29.6511 26.4956C30.0524 26.4956 30.4431 26.626 30.7657 26.8677L45.9855 38.2411C46.3033 38.4781 46.5389 38.8106 46.6588 39.1912C46.7788 39.5718 46.7768 39.981 46.6532 40.3604C46.5296 40.7398 46.2907 41.07 45.9706 41.3039C45.6506 41.5377 45.2657 41.6633 44.8709 41.6626Z" fill="white"/>
<path d="M44.8708 31.7109C44.4697 31.7116 44.0791 31.582 43.7562 31.3413L29.651 20.8114L15.5457 31.3413C15.1458 31.6404 14.6448 31.7665 14.153 31.6919C13.6612 31.6172 13.2188 31.3479 12.9232 30.9432C12.6276 30.5385 12.503 30.0315 12.5768 29.5339C12.6506 29.0362 12.9167 28.5885 13.3166 28.2894L28.5364 16.916C28.859 16.6744 29.2497 16.5439 29.651 16.5439C30.0523 16.5439 30.443 16.6744 30.7655 16.916L45.9854 28.2894C46.3031 28.5264 46.5388 28.859 46.6587 29.2396C46.7786 29.6202 46.7767 30.0294 46.6531 30.4088C46.5295 30.7882 46.2906 31.1184 45.9705 31.3522C45.6505 31.5861 45.2656 31.7116 44.8708 31.7109Z" fill="white"/>
</g>
<defs>
<clipPath id="clip0_71091_2023">
<rect width="34.186" height="25.1163" fill="white" transform="translate(12.5581 16.5464)"/>
</clipPath>
</defs>
</svg>
