<svg width="32" height="32" viewBox="0 0 32 32" fill="none" xmlns="http://www.w3.org/2000/svg">
<mask id="mask0_71720_5840" style="mask-type:alpha" maskUnits="userSpaceOnUse" x="4" y="4" width="24" height="24">
<rect x="4" y="4" width="24" height="24" fill="#D9D9D9"/>
</mask>
<g mask="url(#mask0_71720_5840)">
<path d="M16.0008 17.3998L11.1008 22.2998C10.9174 22.4831 10.6841 22.5748 10.4008 22.5748C10.1174 22.5748 9.88411 22.4831 9.70078 22.2998C9.51745 22.1165 9.42578 21.8831 9.42578 21.5998C9.42578 21.3165 9.51745 21.0831 9.70078 20.8998L14.6008 15.9998L9.70078 11.0998C9.51745 10.9165 9.42578 10.6831 9.42578 10.3998C9.42578 10.1165 9.51745 9.88314 9.70078 9.6998C9.88411 9.51647 10.1174 9.4248 10.4008 9.4248C10.6841 9.4248 10.9174 9.51647 11.1008 9.6998L16.0008 14.5998L20.9008 9.6998C21.0841 9.51647 21.3174 9.4248 21.6008 9.4248C21.8841 9.4248 22.1174 9.51647 22.3008 9.6998C22.4841 9.88314 22.5758 10.1165 22.5758 10.3998C22.5758 10.6831 22.4841 10.9165 22.3008 11.0998L17.4008 15.9998L22.3008 20.8998C22.4841 21.0831 22.5758 21.3165 22.5758 21.5998C22.5758 21.8831 22.4841 22.1165 22.3008 22.2998C22.1174 22.4831 21.8841 22.5748 21.6008 22.5748C21.3174 22.5748 21.0841 22.4831 20.9008 22.2998L16.0008 17.3998Z" fill="white"/>
</g>
</svg>
