<svg width="32" height="32" viewBox="0 0 32 32" fill="none" xmlns="http://www.w3.org/2000/svg">
<mask id="mask0_74193_2798" style="mask-type:alpha" maskUnits="userSpaceOnUse" x="0" y="0" width="32" height="32">
<rect width="32" height="32" fill="#D9D9D9"/>
</mask>
<g mask="url(#mask0_74193_2798)">
<path d="M25.3301 18.6665C25.0142 18.6665 24.7507 18.56 24.5396 18.347C24.3284 18.1341 24.2229 17.8702 24.2229 17.5554V14.4442H21.1118C20.797 14.4442 20.5331 14.3374 20.3201 14.1237C20.1071 13.91 20.0007 13.6451 20.0007 13.3292C20.0007 13.0133 20.1071 12.7498 20.3201 12.5387C20.5331 12.3276 20.797 12.222 21.1118 12.222H24.2229V9.11091C24.2229 8.79611 24.3297 8.53222 24.5435 8.31924C24.7572 8.10628 25.022 7.9998 25.3379 7.9998C25.6538 7.9998 25.9173 8.10628 26.1284 8.31924C26.3395 8.53222 26.4451 8.79611 26.4451 9.11091V12.222H29.5562C29.871 12.222 30.1349 12.3289 30.3479 12.5426C30.5608 12.7563 30.6673 13.0211 30.6673 13.337C30.6673 13.6529 30.5608 13.9165 30.3479 14.1276C30.1349 14.3387 29.871 14.4442 29.5562 14.4442H26.4451V17.5554C26.4451 17.8702 26.3382 18.1341 26.1245 18.347C25.9108 18.56 25.646 18.6665 25.3301 18.6665ZM12.0007 15.9776C10.534 15.9776 9.31546 15.4924 8.34508 14.522C7.37473 13.5517 6.88955 12.3331 6.88955 10.8665C6.88955 9.3998 7.37473 8.18129 8.34508 7.21094C9.31546 6.24056 10.534 5.75537 12.0007 5.75537C13.4673 5.75537 14.6858 6.24056 15.6562 7.21094C16.6266 8.18129 17.1118 9.3998 17.1118 10.8665C17.1118 12.3331 16.6266 13.5517 15.6562 14.522C14.6858 15.4924 13.4673 15.9776 12.0007 15.9776ZM2.44508 26.6665C2.13028 26.6665 1.8664 26.56 1.65342 26.347C1.44046 26.1341 1.33398 25.8702 1.33398 25.5554V23.3331C1.33398 22.5628 1.53213 21.8609 1.92842 21.2276C2.32473 20.5943 2.86733 20.1183 3.55622 19.7998C5.1266 19.0813 6.58095 18.5646 7.91928 18.2498C9.25764 17.935 10.6169 17.7776 11.9971 17.7776C13.3772 17.7776 14.7377 17.935 16.0784 18.2498C17.4192 18.5646 18.8673 19.0813 20.4229 19.7998C21.1118 20.1331 21.6581 20.6128 22.0618 21.2387C22.4655 21.8646 22.6673 22.5628 22.6673 23.3331V25.5554C22.6673 25.8702 22.5608 26.1341 22.3479 26.347C22.1349 26.56 21.871 26.6665 21.5562 26.6665H2.44508ZM3.55618 24.4443H20.4451V23.3331C20.4451 23.0146 20.3655 22.7146 20.2062 22.4331C20.047 22.1516 19.8081 21.9405 19.4896 21.7998C18.0525 21.0961 16.7636 20.6202 15.6229 20.372C14.4821 20.1239 13.2747 19.9998 12.0007 19.9998C10.7266 19.9998 9.51917 20.1276 8.37842 20.3831C7.23768 20.6387 5.9414 21.1109 4.48955 21.7998C4.20064 21.9405 3.97285 22.1516 3.80618 22.4331C3.63952 22.7146 3.55618 23.0146 3.55618 23.3331V24.4443ZM12.0007 13.7554C12.8229 13.7554 13.5099 13.4794 14.0618 12.9276C14.6136 12.3757 14.8896 11.6887 14.8896 10.8665C14.8896 10.0442 14.6136 9.35722 14.0618 8.80537C13.5099 8.2535 12.8229 7.97757 12.0007 7.97757C11.1784 7.97757 10.4914 8.2535 9.93955 8.80537C9.38768 9.35722 9.11175 10.0442 9.11175 10.8665C9.11175 11.6887 9.38768 12.3757 9.93955 12.9276C10.4914 13.4794 11.1784 13.7554 12.0007 13.7554Z" fill="white"/>
</g>
</svg>
