<svg width="32" height="33" viewBox="0 0 32 33" fill="none" xmlns="http://www.w3.org/2000/svg">
<mask id="mask0_71067_5023" style="mask-type:alpha" maskUnits="userSpaceOnUse" x="0" y="0" width="32" height="33">
<rect y="0.17041" width="32" height="32" fill="#D9D9D9"/>
</mask>
<g mask="url(#mask0_71067_5023)">
<path d="M13.7118 20.3841C11.8946 20.3841 10.3567 19.7547 9.098 18.496C7.83931 17.2373 7.20996 15.6994 7.20996 13.8822C7.20996 12.065 7.83931 10.5271 9.098 9.26841C10.3567 8.00972 11.8946 7.38037 13.7118 7.38037C15.529 7.38037 17.0669 8.00972 18.3256 9.26841C19.5843 10.5271 20.2137 12.065 20.2137 13.8822C20.2137 14.6158 20.097 15.3076 19.8636 15.9578C19.6302 16.608 19.3134 17.1832 18.9133 17.6833L24.5149 23.2849C24.6983 23.4683 24.79 23.7017 24.79 23.9851C24.79 24.2685 24.6983 24.5019 24.5149 24.6853C24.3315 24.8687 24.0981 24.9604 23.8147 24.9604C23.5313 24.9604 23.2979 24.8687 23.1145 24.6853L17.5129 19.0837C17.0127 19.4838 16.4376 19.8006 15.7874 20.034C15.1372 20.2674 14.4454 20.3841 13.7118 20.3841ZM13.7118 18.3835C14.9622 18.3835 16.025 17.9459 16.9002 17.0706C17.7755 16.1954 18.2131 15.1326 18.2131 13.8822C18.2131 12.6319 17.7755 11.5691 16.9002 10.6938C16.025 9.81856 14.9622 9.38094 13.7118 9.38094C12.4615 9.38094 11.3987 9.81856 10.5234 10.6938C9.64815 11.5691 9.21053 12.6319 9.21053 13.8822C9.21053 15.1326 9.64815 16.1954 10.5234 17.0706C11.3987 17.9459 12.4615 18.3835 13.7118 18.3835Z" fill="#2A3647"/>
</g>
</svg>
